<?xml version="1.0" standalone="no"?><!DOCTYPE svg PUBLIC "-//W3C//DTD SVG 1.1//EN" "http://www.w3.org/Graphics/SVG/1.1/DTD/svg11.dtd"><svg t="1604679128515" class="icon" viewBox="0 0 1024 1024" version="1.1" xmlns="http://www.w3.org/2000/svg" p-id="3668" xmlns:xlink="http://www.w3.org/1999/xlink" width="200" height="200"><defs><style type="text/css"></style></defs><path d="M903 763c-13.3 0-24 10.7-24 24v68c0 13.2-10.8 24-24 24H169c-13.2 0-24-10.8-24-24v-68c0-13.3-10.7-24-24-24s-24 10.7-24 24v92c0 26.4 21.6 48 48 48h734c26.4 0 48-21.6 48-48v-92c0-13.3-10.7-24-24-24zM693 461.5c-9.3-9.3-24.6-9.3-33.9 0L536 584.6V121c0-13.2-10.8-24-24-24s-24 10.8-24 24v463.6L364.9 461.5c-9.3-9.3-24.6-9.3-33.9 0-9.3 9.3-9.3 24.6 0 33.9l164 164c9.3 9.3 24.6 9.3 33.9 0l164-164c9.5-9.3 9.5-24.6 0.1-33.9z" p-id="3669" file=""></path></svg>