<?xml version="1.0" standalone="no"?><!DOCTYPE svg PUBLIC "-//W3C//DTD SVG 1.1//EN" "http://www.w3.org/Graphics/SVG/1.1/DTD/svg11.dtd"><svg t="1604679153723" class="icon" viewBox="0 0 1024 1024" version="1.1" xmlns="http://www.w3.org/2000/svg" p-id="4178" xmlns:xlink="http://www.w3.org/1999/xlink" width="200" height="200"><defs><style type="text/css"></style></defs><path d="M426.666667 192a21.333333 21.333333 0 0 1 3.140266 42.427733l-3.140266 0.238934H234.666667v597.333333H426.666667c10.717867 0 19.592533 7.8848 21.0944 18.193067l0.238933 3.140266a21.333333 21.333333 0 0 1-18.193067 21.0944l-3.140266 0.238934H213.333333a21.333333 21.333333 0 0 1-21.0944-18.193067L192 853.333333V213.333333c0-10.717867 7.8848-19.592533 18.193067-21.0944l3.140266-0.238933h213.333334z" p-id="4179"></path><path d="M749.636267 512a21.333333 21.333333 0 0 1 3.1744 42.427733l-3.1744 0.238934H355.566933a21.333333 21.333333 0 0 1-3.1744-42.427734l3.1744-0.238933h394.069334z" p-id="4180"></path><path d="M820.565333 560.64l-122.231466 101.888a35.566933 35.566933 0 0 1-58.333867-27.306667v-203.776a35.566933 35.566933 0 0 1 58.333867-27.306666l122.197333 101.888a35.566933 35.566933 0 0 1 0 54.613333z" p-id="4181" fill=""></path></svg>